<?xml version="1.0" encoding="utf-8"?>
<!-- Generator: Adobe Illustrator 25.2.1, SVG Export Plug-In . SVG Version: 6.00 Build 0)  -->
<svg version="1.1" id="Layer_1" xmlns="http://www.w3.org/2000/svg" xmlns:xlink="http://www.w3.org/1999/xlink" x="0px" y="0px"
	 viewBox="0 0 1000 1000" style="enable-background:new 0 0 1000 1000;" xml:space="preserve">
<style type="text/css">
	.st0{fill:#E6F3ED;}
	.st1{fill:#FFFFFF;}
	.st2{font-family:'MicrosoftSansSerif';}
	.st3{font-size:100px;}
	.st4{fill:none;stroke:#FFFFFF;stroke-width:7;stroke-miterlimit:10;}
	.st5{fill:none;stroke:#FFFFFF;stroke-width:4;stroke-miterlimit:10;}
</style>
<g>
	<circle class="st0" cx="499.8" cy="499.9" r="456.9"/>
	<text transform="matrix(0.8934 0 0 1 451.5302 171.0108)" class="st1 st2 st3">12</text>
	<text transform="matrix(0.8934 0 0 1 657.3394 224.5914)" class="st1 st2 st3">1</text>
	<text transform="matrix(0.8934 0 0 1 793.9467 353.1906)" class="st1 st2 st3">2</text>
	<text transform="matrix(0.8934 0 0 1 844.3568 532.4203)" class="st1 st2 st3">3</text>
	<text transform="matrix(0.8934 0 0 1 791.2682 717.0574)" class="st1 st2 st3">4</text>
	<text transform="matrix(0.8934 0 0 1 660.0913 853.986)" class="st1 st2 st3">5</text>
	<text transform="matrix(0.8934 0 0 1 476.3735 901.7145)" class="st1 st2 st3">6</text>
	<text transform="matrix(0.8934 0 0 1 291.9951 853.986)" class="st1 st2 st3">7</text>
	<text transform="matrix(0.8934 0 0 1 156.4723 717.0575)" class="st1 st2 st3">8</text>
	<text transform="matrix(0.8934 0 0 1 103.1287 532.4203)" class="st1 st2 st3">9</text>
	<text transform="matrix(0.8934 0 0 1 133.9483 353.1905)" class="st1 st2 st3">10</text>
	<text transform="matrix(0.8934 0 0 1 259.9946 224.5914)" class="st1 st2 st3">11</text>
	<g>
		<line class="st4" x1="500.8" y1="43.2" x2="500.8" y2="76.5"/>
		<line class="st4" x1="728.5" y1="105.3" x2="711.9" y2="134.2"/>
		<line class="st4" x1="108.1" y1="274.2" x2="137.4" y2="290.1"/>
		<line class="st4" x1="271.2" y1="103.6" x2="288.7" y2="132"/>
		<line class="st4" x1="729.3" y1="894.4" x2="712.6" y2="865.5"/>
		<line class="st4" x1="501" y1="954.6" x2="501" y2="921.3"/>
		<line class="st4" x1="953.7" y1="497.9" x2="920.3" y2="498.8"/>
		<line class="st4" x1="897.9" y1="727.3" x2="868.5" y2="711.4"/>
		<line class="st4" x1="895.9" y1="269.3" x2="868" y2="287.6"/>
		<line class="st4" x1="43.9" y1="499.5" x2="77.2" y2="499.5"/>
		<line class="st4" x1="274.7" y1="892.3" x2="290.6" y2="863"/>
		<line class="st4" x1="104.1" y1="729.1" x2="132.5" y2="711.7"/>
		<line class="st5" x1="136.5" y1="234.2" x2="150.4" y2="243.9"/>
		<line class="st5" x1="166.6" y1="197.4" x2="178.6" y2="209.4"/>
		<line class="st5" x1="199.8" y1="164.2" x2="211.7" y2="176.3"/>
		<line class="st5" x1="237.3" y1="134" x2="246.9" y2="148"/>
		<line class="st5" x1="318.3" y1="87.8" x2="325.6" y2="103"/>
		<line class="st5" x1="362.6" y1="70.4" x2="367.1" y2="86.7"/>
		<line class="st5" x1="407.8" y1="57.8" x2="412.2" y2="74.1"/>
		<line class="st5" x1="455.3" y1="49.9" x2="456.8" y2="66.7"/>
		<line class="st5" x1="548.6" y1="50" x2="547.1" y2="66.8"/>
		<line class="st5" x1="595.5" y1="57.9" x2="591" y2="74.2"/>
		<line class="st5" x1="640.8" y1="70.2" x2="636.2" y2="86.5"/>
		<line class="st5" x1="685.6" y1="87.9" x2="678.3" y2="103.1"/>
		<line class="st5" x1="765.9" y1="135.2" x2="756.3" y2="149.2"/>
		<line class="st5" x1="802.9" y1="165.1" x2="791" y2="177.1"/>
		<line class="st5" x1="836.4" y1="198.1" x2="824.4" y2="210"/>
		<line class="st5" x1="866.8" y1="235.4" x2="852.9" y2="245.1"/>
		<line class="st5" x1="90.6" y1="683.5" x2="106" y2="676.4"/>
		<line class="st5" x1="74" y1="639" x2="90.3" y2="634.6"/>
		<line class="st5" x1="62" y1="593.5" x2="78.4" y2="589.4"/>
		<line class="st5" x1="54.8" y1="545.9" x2="71.6" y2="544.7"/>
		<line class="st5" x1="55.5" y1="452.7" x2="72.4" y2="454.1"/>
		<line class="st5" x1="62.8" y1="405.7" x2="79.2" y2="410"/>
		<line class="st5" x1="74.6" y1="360.3" x2="91" y2="364.7"/>
		<line class="st5" x1="91.7" y1="315.2" x2="107" y2="322.4"/>
		<line class="st5" x1="455.2" y1="949.5" x2="456.8" y2="932.7"/>
		<line class="st5" x1="408.4" y1="941.6" x2="412.8" y2="925.3"/>
		<line class="st5" x1="363" y1="929.2" x2="367.7" y2="913"/>
		<line class="st5" x1="318.2" y1="911.6" x2="325.6" y2="896.4"/>
		<line class="st5" x1="238" y1="864.2" x2="247.6" y2="850.3"/>
		<line class="st5" x1="201" y1="834.3" x2="212.9" y2="822.3"/>
		<line class="st5" x1="167.6" y1="801.3" x2="179.6" y2="789.4"/>
		<line class="st5" x1="137.2" y1="763.9" x2="151.1" y2="754.3"/>
		<line class="st5" x1="867.6" y1="763.3" x2="853.8" y2="753.6"/>
		<line class="st5" x1="837.6" y1="800.1" x2="825.6" y2="788.2"/>
		<line class="st5" x1="804.4" y1="833.4" x2="792.5" y2="821.3"/>
		<line class="st5" x1="766.9" y1="863.6" x2="757.3" y2="849.7"/>
		<line class="st5" x1="686" y1="910" x2="678.7" y2="894.7"/>
		<line class="st5" x1="641.8" y1="927.4" x2="637.2" y2="911.1"/>
		<line class="st5" x1="596.6" y1="940.1" x2="592.2" y2="923.8"/>
		<line class="st5" x1="549.1" y1="948.1" x2="547.6" y2="931.2"/>
		<line class="st5" x1="911.7" y1="316.7" x2="896.4" y2="323.9"/>
		<line class="st5" x1="928.6" y1="361.2" x2="912.3" y2="365.6"/>
		<line class="st5" x1="940.9" y1="406.5" x2="924.5" y2="410.8"/>
		<line class="st5" x1="948.3" y1="454.1" x2="931.4" y2="455.4"/>
		<line class="st5" x1="948" y1="547.3" x2="931.2" y2="546.1"/>
		<line class="st5" x1="941" y1="594.3" x2="924.6" y2="590.2"/>
		<line class="st5" x1="929.4" y1="639.9" x2="913.1" y2="635.6"/>
		<line class="st5" x1="912.6" y1="685" x2="897.3" y2="677.9"/>
	</g>
</g>
</svg>
